<?xml version="1.0" standalone="no"?>
<!DOCTYPE svg PUBLIC "-//W3C//DTD SVG 20010904//EN"
 "http://www.w3.org/TR/2001/REC-SVG-20010904/DTD/svg10.dtd">
<svg version="1.0" xmlns="http://www.w3.org/2000/svg"
 width="720.000000pt" height="720.000000pt" viewBox="0 0 720.000000 720.000000"
 preserveAspectRatio="xMidYMid meet">
<metadata>
Created by potrace 1.11, written by Peter Selinger 2001-2013
</metadata>
<g transform="translate(0.000000,720.000000) scale(0.100000,-0.100000)"
fill="#000000" stroke="none">
<path d="M0 3600 l0 -3600 3600 0 3600 0 0 3600 0 3600 -3600 0 -3600 0 0
-3600z m2700 1200 l0 -300 600 0 600 0 0 300 0 300 600 0 600 0 0 -300 0 -300
300 0 300 0 0 -1200 0 -1200 -600 0 -600 0 0 600 0 600 -300 0 -300 0 0 -300
0 -300 -300 0 -300 0 0 300 0 300 -300 0 -300 0 0 -600 0 -600 -600 0 -600 0
0 1500 0 1500 600 0 600 0 0 -300z"/>
</g>
</svg>
